<svg width="1080" height="1080" viewBox="0 0 1080 1080" fill="none" xmlns="http://www.w3.org/2000/svg">
<path d="M215.368 0H867.04V165.212H215.368V0Z" fill="hsl(0, 0%, 95%)"/>
<path d="M524.377 165.212H215.368L417.295 295.241L709.476 305.949L524.377 165.212Z" fill="hsl(0, 0%, 95%)"/>
<path fill-rule="evenodd" clip-rule="evenodd" d="M539.674 896.431C651.021 896.431 750.779 801.761 750.779 673.088C750.779 544.415 651.021 449.745 539.674 449.745C428.328 449.745 328.569 544.415 328.569 673.088C328.569 801.761 428.328 896.431 539.674 896.431ZM539.674 1080C757.647 1080 934.348 897.819 934.348 673.088C934.348 448.356 757.647 266.176 539.674 266.176C321.702 266.176 145 448.356 145 673.088C145 897.819 321.702 1080 539.674 1080Z" fill="hsl(0, 0%, 95%)"/>
</svg>
