<svg xmlns="http://www.w3.org/2000/svg" version="1.1" xmlns:xlink="http://www.w3.org/1999/xlink" xmlns:svgjs="http://svgjs.com/svgjs" width="1080" height="1080"><svg width="1080" height="1080" viewBox="0 0 1080 1080" fill="none" xmlns="http://www.w3.org/2000/svg">
<path d="M945 517.501C945.155 576.895 931.278 635.486 904.5 688.501C872.749 752.03 823.939 805.464 763.535 842.819C703.132 880.174 633.521 899.974 562.5 900.001C503.106 900.156 444.515 886.279 391.5 859.501L135 945.001L220.5 688.501C193.722 635.486 179.845 576.895 180 517.501C180.027 446.48 199.828 376.87 237.182 316.466C274.537 256.062 327.971 207.252 391.5 175.501C444.515 148.723 503.106 134.846 562.5 135.001H585C678.796 140.176 767.387 179.766 833.811 246.19C900.236 312.614 939.825 401.206 945 495.001V517.501Z" stroke="black" stroke-width="70" stroke-linecap="round" stroke-linejoin="round"></path>
<path d="M407.643 289H709.946V365.64H407.643V289Z" fill="black"></path>
<path d="M550.989 365.64H407.643L501.314 425.959L636.854 430.926L550.989 365.64Z" fill="black"></path>
<path fill-rule="evenodd" clip-rule="evenodd" d="M558.085 704.844C609.737 704.844 656.014 660.928 656.014 601.238C656.014 541.548 609.737 497.632 558.085 497.632C506.433 497.632 460.156 541.548 460.156 601.238C460.156 660.928 506.433 704.844 558.085 704.844ZM558.085 790C659.2 790 741.17 705.488 741.17 601.238C741.17 496.988 659.2 412.476 558.085 412.476C456.97 412.476 375 496.988 375 601.238C375 705.488 456.97 790 558.085 790Z" fill="black"></path>
</svg><style>@media (prefers-color-scheme: light) { :root { filter: none; } }
@media (prefers-color-scheme: dark) { :root { filter: invert(100%); } }
</style></svg>